{"title":"Pokemon Black and White -32- Cottonee In Love! 720p by salman sk","uid":6679720,"size":104950384,"categoryP":"video","categoryS":"hd___tv_shows","magnet":"?xt=urn:btih:5e9347f18d0129785b1b75cdcae8325c486d04f9&amp;dn=Pokemon+Black+and+White+-32-+Cottonee+In+Love%21+720p+by+salman+sk&amp;tr=udp%3A%2F%2Ftracker.openbittorrent.com%3A80&amp;tr=udp%3A%2F%2Fopen.demonii.com%3A1337&amp;tr=udp%3A%2F%2Ftracker.coppersurfer.tk%3A6969&amp;tr=udp%3A%2F%2Fexodus.desync.com%3A6969","seeders":0,"leechers":0,"uploader":"salmansk","files":2,"time":1316158225,"description":"\n\nplot......info\nIn a practice match between Scraggy and Axew, the match is interrupted by a gust of wind followed by the appearance of a Cottonee. Cilan realizes that it is the time of year that Cottonee pair up and that this male Cottonee must be looking for a mate. While they watch it find a female Cottonee that he has fallen in love with, they watch as she attacks him because he is too weak. Scraggy steps forward, wanting to help Cottonee to become stronger and braver, but Scraggy's Scary Face sends it cowering behind a tree stump. Ash then steps in, helping train Cottonee against Scraggy, as Team Rocket watches the Cottonee swarm from afar. Axew and Cottonee train next, with Axew teaching Cottonee accuracy for its Energy Ball, and then Dwebble goes up against Cottonee to test its Razor Leaf and Solar Beam. Ash then sends out Tranquill to search for the other Cottonee so Cottonee can get a mate as Team Rocket calls in for new supplies. As soon as Ash and the others reach the Cottonee swarm, a gust of wind blows up from Team Rocket's large fan, catching all the Cottonee in a bag. Satoshi sends out Tranquill to slice open the bag with Air Cutter, freeing the Cottonee and dispatching Team Rocket. Later, the Cottonee they have been training with finally defeats several other male Cottonee, impressing the same female Cottonee from before and getting a mate. The next day, as the perfect weather conditions are finally met, Ash, Iris, Cilan, Pikachu, Axew, and Scraggy watch all the paired Cottonee drift away on the wind to a new life together. \n\n\n\nGeneral\nComplete name                    \nPokemon Black and White -32- Cottonee In Love! 720p by salman sk.mp4\n\nFormat                           : MPEG-4\nFormat profile                   : Base Media / Version 2\nCodec ID                         : mp42\nFile size                        : 100 MiB\nDuration                         : 21mn 21s\nOverall bit rate                 : 655 Kbps\nEncoded date                     : UTC 2011-08-22 17:29:12\nTagged date                      : UTC 2011-08-22 18:18:26\n\nVideo\nID                               : 1\nFormat                           : AVC\nFormat/Info                      : Advanced Video Codec\nFormat profile                   : &lt;a class=&quot;__cf_email__&quot; href=&quot;/cdn-cgi/l/email-protection&quot; data-cfemail=&quot;c68ba7afa8868af3e8f6&quot;&gt;[email&amp;#160;protected]&lt;/a&gt;&lt;script data-cfhash='f9e31' type=&quot;text/javascript&quot;&gt;\n/* &lt;![CDATA[ */!function(){try{var t=&quot;currentScript&quot;in document?document.currentScript:function(){for(var t=document.getElementsByTagName(&quot;script&quot;),e=t.length;e--;)if(t[e].getAttribute(&quot;data-cfhash&quot;))return t[e]}();if(t&amp;&amp;t.previousSibling){var e,r,n,i,c=t.previousSibling,a=c.getAttribute(&quot;data-cfemail&quot;);if(a){for(e=&quot;&quot;,r=parseInt(a.substr(0,2),16),n=2;a.length-n;n+=2)i=parseInt(a.substr(n,2),16)^r,e+=String.fromCharCode(i);e=document.createTextNode(e),c.parentNode.replaceChild(e,c)}t.parentNode.removeChild(t);}}catch(u){}}()/* ]]&gt; */&lt;/script&gt;\nFormat settings, CABAC           : Yes\nFormat settings, ReFrames        : 16 frames\nCodec ID                         : avc1\nCodec ID/Info                    : Advanced Video Coding\nDuration                         : 21mn 21s\nBit rate mode                    : Variable\nBit rate                         : 490 Kbps\nWidth                            : 1 280 pixels\nHeight                           : 720 pixels\nDisplay aspect ratio             : 16:9\nFrame rate mode                  : Constant\nFrame rate                       : 29.970 fps\nColor space                      : YUV\nChroma subsampling               : 4:2:0\nBit depth                        : 8 bits\nScan type                        : Progressive\nBits/(Pixel*Frame)               : 0.018\nStream size                      : 75.0 MiB (75%)\nWriting library                  : x264 core 112\n\nAudio\nID                               : 2\nFormat                           : AAC\nFormat/Info                      : Advanced Audio Codec\nFormat profile                   : LC\nCodec ID                         : 40\nDuration                         : 21mn 21s\nBit rate mode                    : Variable\nBit rate                         : 160 Kbps\nMaximum bit rate                 : 193 Kbps\nChannel(s)                       : 2 channels\nChannel positions                : Front: L R\nSampling rate                    : 48.0 KHz\nCompression mode                 : Lossy\nStream size                      : 24.4 MiB (24%)\nLanguage                         : English","torrent":{"xt":"urn:btih:5e9347f18d0129785b1b75cdcae8325c486d04f9","amp;dn":"Pokemon+Black+and+White+-32-+Cottonee+In+Love%21+720p+by+salman+sk","amp;tr":["udp%3A%2F%2Ftracker.openbittorrent.com%3A80","udp%3A%2F%2Fopen.demonii.com%3A1337","udp%3A%2F%2Ftracker.coppersurfer.tk%3A6969","udp%3A%2F%2Fexodus.desync.com%3A6969"],"infoHash":"5e9347f18d0129785b1b75cdcae8325c486d04f9","infoHashBuffer":{"type":"Buffer","data":[94,147,71,241,141,1,41,120,91,27,117,205,202,232,50,92,72,109,4,249]},"announce":[],"urlList":[]}}